<mxfile host="drawio-plugin" modified="2022-06-06T17:32:46.503Z" agent="5.0 (Windows NT 6.2; Win64; x64) AppleWebKit/537.36 (KHTML, like Gecko) Chrome/97.0.4692.45 Safari/537.36" etag="qQ_ZjkLaUscx5FMeKTIz" version="15.5.4" type="embed"><diagram id="23iRSUPoRavnBvh4doch" name="Page-1"><mxGraphModel dx="1086" dy="735" grid="1" gridSize="10" guides="1" tooltips="1" connect="1" arrows="1" fold="1" page="1" pageScale="1" pageWidth="827" pageHeight="1169" math="0" shadow="0"><root><mxCell id="0"/><mxCell id="1" parent="0"/><mxCell id="2" value="" style="ellipse;html=1;shape=startState;fillColor=#000000;strokeColor=#ff0000;" vertex="1" parent="1"><mxGeometry x="380" y="30" width="30" height="30" as="geometry"/></mxCell><mxCell id="3" value="" style="edgeStyle=orthogonalEdgeStyle;html=1;verticalAlign=bottom;endArrow=open;endSize=8;strokeColor=#ff0000;rounded=0;" edge="1" source="2" parent="1" target="4"><mxGeometry relative="1" as="geometry"><mxPoint x="395" y="120" as="targetPoint"/></mxGeometry></mxCell><mxCell id="10" style="edgeStyle=orthogonalEdgeStyle;rounded=0;orthogonalLoop=1;jettySize=auto;html=1;strokeColor=#FF0000;" edge="1" parent="1" source="4" target="7"><mxGeometry relative="1" as="geometry"/></mxCell><mxCell id="4" value="Ajoute un événement" style="rounded=1;whiteSpace=wrap;html=1;arcSize=40;fontColor=#000000;fillColor=#ffffc0;strokeColor=#ff0000;" vertex="1" parent="1"><mxGeometry x="335" y="150" width="120" height="40" as="geometry"/></mxCell><mxCell id="16" value="" style="edgeStyle=orthogonalEdgeStyle;rounded=0;orthogonalLoop=1;jettySize=auto;html=1;fontColor=#000000;strokeColor=#FF0000;" edge="1" parent="1" source="5" target="15"><mxGeometry relative="1" as="geometry"/></mxCell><mxCell id="5" value="Entrer les données de l'événement objet,description heure début et fin" style="rounded=1;whiteSpace=wrap;html=1;arcSize=40;fontColor=#000000;fillColor=#ffffc0;strokeColor=#ff0000;" vertex="1" parent="1"><mxGeometry x="500" y="450" width="150" height="120" as="geometry"/></mxCell><mxCell id="11" style="edgeStyle=orthogonalEdgeStyle;rounded=0;orthogonalLoop=1;jettySize=auto;html=1;fontColor=#000000;strokeColor=#FF0000;entryX=0.5;entryY=0;entryDx=0;entryDy=0;" edge="1" parent="1" source="7" target="5"><mxGeometry relative="1" as="geometry"><mxPoint x="570" y="335" as="targetPoint"/></mxGeometry></mxCell><mxCell id="12" style="edgeStyle=orthogonalEdgeStyle;rounded=0;orthogonalLoop=1;jettySize=auto;html=1;exitX=0;exitY=0.5;exitDx=0;exitDy=0;fontColor=#000000;strokeColor=#FF0000;" edge="1" parent="1" source="7" target="13"><mxGeometry relative="1" as="geometry"><mxPoint x="220" y="410" as="targetPoint"/></mxGeometry></mxCell><mxCell id="7" value="&lt;font color=&quot;#000000&quot;&gt;vérifie si type événement existe&lt;/font&gt;" style="rhombus;whiteSpace=wrap;html=1;fillColor=#ffffc0;strokeColor=#ff0000;" vertex="1" parent="1"><mxGeometry x="312.5" y="240" width="165" height="160" as="geometry"/></mxCell><mxCell id="14" style="edgeStyle=orthogonalEdgeStyle;rounded=0;orthogonalLoop=1;jettySize=auto;html=1;entryX=0;entryY=0.5;entryDx=0;entryDy=0;fontColor=#000000;strokeColor=#FF0000;" edge="1" parent="1" source="13" target="5"><mxGeometry relative="1" as="geometry"><Array as="points"><mxPoint x="210" y="500"/></Array></mxGeometry></mxCell><mxCell id="13" value="Entre un nom de type d'événement, entre un code couleur" style="rounded=1;whiteSpace=wrap;html=1;arcSize=40;fontColor=#000000;fillColor=#ffffc0;strokeColor=#ff0000;" vertex="1" parent="1"><mxGeometry x="130" y="450" width="140" height="60" as="geometry"/></mxCell><mxCell id="18" value="" style="edgeStyle=orthogonalEdgeStyle;rounded=0;orthogonalLoop=1;jettySize=auto;html=1;fontColor=#000000;strokeColor=#FF0000;" edge="1" parent="1" source="15" target="17"><mxGeometry relative="1" as="geometry"/></mxCell><mxCell id="20" value="" style="edgeStyle=orthogonalEdgeStyle;rounded=0;orthogonalLoop=1;jettySize=auto;html=1;fontColor=#000000;strokeColor=#FF0000;" edge="1" parent="1" source="15" target="19"><mxGeometry relative="1" as="geometry"/></mxCell><mxCell id="15" value="Vérifie si tout est correctement entré" style="rhombus;whiteSpace=wrap;html=1;rounded=1;fontColor=#000000;strokeColor=#ff0000;fillColor=#ffffc0;arcSize=40;" vertex="1" parent="1"><mxGeometry x="510" y="650" width="130" height="150" as="geometry"/></mxCell><mxCell id="23" style="edgeStyle=orthogonalEdgeStyle;rounded=0;orthogonalLoop=1;jettySize=auto;html=1;fontColor=#000000;strokeColor=#FF0000;" edge="1" parent="1" source="17" target="22"><mxGeometry relative="1" as="geometry"/></mxCell><mxCell id="17" value="Ajoute l'événement" style="whiteSpace=wrap;html=1;rounded=1;fontColor=#000000;strokeColor=#ff0000;fillColor=#ffffc0;arcSize=40;" vertex="1" parent="1"><mxGeometry x="340" y="910" width="120" height="60" as="geometry"/></mxCell><mxCell id="21" style="edgeStyle=orthogonalEdgeStyle;rounded=0;orthogonalLoop=1;jettySize=auto;html=1;entryX=0.5;entryY=1;entryDx=0;entryDy=0;fontColor=#000000;strokeColor=#FF0000;" edge="1" parent="1" source="19" target="15"><mxGeometry relative="1" as="geometry"/></mxCell><mxCell id="19" value="affiche une erreur" style="whiteSpace=wrap;html=1;rounded=1;fontColor=#000000;strokeColor=#ff0000;fillColor=#ffffc0;arcSize=40;" vertex="1" parent="1"><mxGeometry x="680" y="830" width="120" height="60" as="geometry"/></mxCell><mxCell id="22" value="" style="ellipse;html=1;shape=endState;fillColor=#000000;strokeColor=#ff0000;fontColor=#000000;" vertex="1" parent="1"><mxGeometry x="385" y="1060" width="30" height="30" as="geometry"/></mxCell></root></mxGraphModel></diagram></mxfile>